<svg id="Слой_1" data-name="Слой 1" xmlns="http://www.w3.org/2000/svg" viewBox="0 0 218 59"><defs><style>.cls-1{fill:#0f595e;}.cls-2{fill:#00595b;}.cls-3{fill:#d35a58;}</style></defs><path class="cls-1" d="M82.06,33a4.18,4.18,0,0,1-1.61-1.54,4.28,4.28,0,0,1-.58-2.22A4.14,4.14,0,0,1,80.46,27a4.21,4.21,0,0,1,1.61-1.55,5.09,5.09,0,0,1,4.18-.19,3.76,3.76,0,0,1,1.44,1l-1,1a2.94,2.94,0,0,0-2.25-1,3.18,3.18,0,0,0-1.55.38,2.77,2.77,0,0,0-1.07,1,3.25,3.25,0,0,0,0,3.05,2.77,2.77,0,0,0,1.07,1.05,3.18,3.18,0,0,0,1.55.38,2.92,2.92,0,0,0,2.25-1l1,1a3.78,3.78,0,0,1-1.44,1.05,4.89,4.89,0,0,1-1.89.36A4.75,4.75,0,0,1,82.06,33Z"/><path class="cls-1" d="M89,27h1.5v4.22L94,27H95.4v6.41H93.9V29.22l-3.53,4.23H89Z"/><path class="cls-1" d="M98.65,33.11a3.11,3.11,0,0,1-1.24-1.17,3.24,3.24,0,0,1-.44-1.7,3.21,3.21,0,0,1,.44-1.69,3.12,3.12,0,0,1,1.23-1.16,3.73,3.73,0,0,1,1.79-.42,3.43,3.43,0,0,1,1.67.38,2.53,2.53,0,0,1,1.07,1.1l-1.15.68a1.92,1.92,0,0,0-.69-.67,1.88,1.88,0,0,0-.91-.22,1.91,1.91,0,0,0-1.39.54,2.23,2.23,0,0,0,0,2.92,1.92,1.92,0,0,0,1.4.55,1.86,1.86,0,0,0,1.6-.89l1.15.67a2.59,2.59,0,0,1-1.09,1.11,3.35,3.35,0,0,1-1.65.39A3.71,3.71,0,0,1,98.65,33.11Z"/><path class="cls-1" d="M110,28.31h-2.24v5.14h-1.5V28.31H104V27h6Z"/><path class="cls-1" d="M117.27,30.72h-5a1.74,1.74,0,0,0,.69,1.12,2.22,2.22,0,0,0,1.38.42,2.3,2.3,0,0,0,1.74-.7l.81.93a2.79,2.79,0,0,1-1.09.78,4.12,4.12,0,0,1-1.49.26,3.93,3.93,0,0,1-1.86-.42,3,3,0,0,1-1.24-1.17,3.24,3.24,0,0,1-.44-1.7,3.38,3.38,0,0,1,.42-1.68,3,3,0,0,1,1.19-1.17,3.43,3.43,0,0,1,1.7-.42,3.31,3.31,0,0,1,1.67.41,2.94,2.94,0,0,1,1.16,1.16,3.61,3.61,0,0,1,.41,1.74C117.29,30.38,117.28,30.53,117.27,30.72Zm-4.44-2.13a1.8,1.8,0,0,0-.6,1.14h3.63a1.75,1.75,0,0,0-1.81-1.56A1.83,1.83,0,0,0,112.83,28.59Z"/><path class="cls-1" d="M125.23,33.45V29.2l-2.16,3.57h-.65l-2.12-3.58v4.26h-1.37V27h1.57l2.28,4,2.39-4h1.41v6.41Z"/><path class="cls-1" d="M133.25,27.64a2.64,2.64,0,0,1,.75,2.05v3.76h-1.42v-.78a1.72,1.72,0,0,1-.78.64,3,3,0,0,1-1.23.22,2.92,2.92,0,0,1-1.26-.25,2,2,0,0,1-.84-.68,1.77,1.77,0,0,1-.29-1,1.69,1.69,0,0,1,.64-1.39,3.24,3.24,0,0,1,2-.52h1.66v-.09a1.32,1.32,0,0,0-.4-1,1.76,1.76,0,0,0-1.2-.36,3.51,3.51,0,0,0-1.06.17,2.55,2.55,0,0,0-.88.47l-.59-1.09a3.69,3.69,0,0,1,1.21-.59,5.33,5.33,0,0,1,1.5-.2A3.13,3.13,0,0,1,133.25,27.64Zm-1.37,4.54a1.41,1.41,0,0,0,.62-.74V30.7H131c-.86,0-1.29.28-1.29.85a.76.76,0,0,0,.32.65,1.5,1.5,0,0,0,.9.24A1.93,1.93,0,0,0,131.88,32.18Z"/><path class="cls-1" d="M139.44,27h1.5v2.6h3.22V27h1.5v6.41h-1.5V30.91h-3.22v2.54h-1.5Z"/><path class="cls-1" d="M152.35,27.64a2.64,2.64,0,0,1,.75,2.05v3.76h-1.42v-.78a1.74,1.74,0,0,1-.79.64,3,3,0,0,1-1.23.22,2.92,2.92,0,0,1-1.26-.25,1.94,1.94,0,0,1-.83-.68,1.83,1.83,0,0,1,.35-2.38,3.24,3.24,0,0,1,2-.52h1.66v-.09a1.33,1.33,0,0,0-.41-1,1.71,1.71,0,0,0-1.19-.36,3.51,3.51,0,0,0-1.06.17,2.55,2.55,0,0,0-.88.47l-.59-1.09a3.6,3.6,0,0,1,1.21-.59,5.23,5.23,0,0,1,1.5-.2A3.15,3.15,0,0,1,152.35,27.64ZM151,32.18a1.41,1.41,0,0,0,.62-.74V30.7h-1.55c-.87,0-1.3.28-1.3.85a.77.77,0,0,0,.33.65,1.46,1.46,0,0,0,.9.24A2,2,0,0,0,151,32.18Z"/><path class="cls-1" d="M160.88,27l-3,6.92a3.18,3.18,0,0,1-1,1.47,2.39,2.39,0,0,1-1.45.43,2.83,2.83,0,0,1-.95-.16,2.12,2.12,0,0,1-.77-.43l.6-1.1a1.77,1.77,0,0,0,.51.32,1.61,1.61,0,0,0,.6.12,1,1,0,0,0,.65-.2,1.84,1.84,0,0,0,.47-.69l.11-.25L153.84,27h1.56l2,4.74,2-4.74Z"/><path class="cls-1" d="M167.77,27v6.41h-1.5V31a4.37,4.37,0,0,1-1.93.45,2.82,2.82,0,0,1-1.9-.57,2.2,2.2,0,0,1-.66-1.75V27h1.5V29a1.13,1.13,0,0,0,.36.92,1.55,1.55,0,0,0,1,.3,3.75,3.75,0,0,0,1.61-.36V27Z"/><path class="cls-1" d="M169.81,27h1.5v2.6h3.22V27H176v6.41h-1.5V30.91h-3.22v2.54h-1.5Z"/><path class="cls-1" d="M179.27,33.11a3.05,3.05,0,0,1-1.22-1.17,3.34,3.34,0,0,1-.44-1.7,3.3,3.3,0,0,1,.44-1.69,3,3,0,0,1,1.22-1.16A3.62,3.62,0,0,1,181,27a3.66,3.66,0,0,1,1.76.42A3,3,0,0,1,184,28.55a3.3,3.3,0,0,1,.44,1.69,3.34,3.34,0,0,1-.44,1.7,3.05,3.05,0,0,1-1.22,1.17,3.66,3.66,0,0,1-1.76.42A3.62,3.62,0,0,1,179.27,33.11Zm3.12-1.42a2.22,2.22,0,0,0,0-2.9,1.83,1.83,0,0,0-1.37-.55,1.79,1.79,0,0,0-1.36.55,2.22,2.22,0,0,0,0,2.9,1.8,1.8,0,0,0,1.36.56A1.84,1.84,0,0,0,182.39,31.69Z"/><path class="cls-1" d="M190.94,28.31h-3.42v5.14H186V27h4.92Z"/><path class="cls-1" d="M193.3,33.11a3.12,3.12,0,0,1-1.22-1.17,3.33,3.33,0,0,1-.43-1.7,3.29,3.29,0,0,1,.43-1.69,3.1,3.1,0,0,1,1.22-1.16,3.9,3.9,0,0,1,3.52,0A3.1,3.1,0,0,1,198,28.55a3.3,3.3,0,0,1,.44,1.69,3.34,3.34,0,0,1-.44,1.7,3.12,3.12,0,0,1-1.22,1.17,3.9,3.9,0,0,1-3.52,0Zm3.12-1.42a2.22,2.22,0,0,0,0-2.9,2,2,0,0,0-2.73,0,2.25,2.25,0,0,0,0,2.9,1.94,1.94,0,0,0,2.73,0Z"/><path class="cls-1" d="M81.45,48.11a3,3,0,0,1-1.23-1.17,3.25,3.25,0,0,1-.45-1.7,3.21,3.21,0,0,1,.45-1.69,3,3,0,0,1,1.23-1.16A3.73,3.73,0,0,1,83.24,42a3.39,3.39,0,0,1,1.66.38A2.5,2.5,0,0,1,86,43.45l-1.16.68a1.77,1.77,0,0,0-.69-.67,1.82,1.82,0,0,0-.9-.22,1.89,1.89,0,0,0-1.39.54,2.2,2.2,0,0,0,0,2.92,1.91,1.91,0,0,0,1.4.55,1.83,1.83,0,0,0,.9-.23,1.74,1.74,0,0,0,.69-.66L86,47a2.59,2.59,0,0,1-1.09,1.11,3.38,3.38,0,0,1-1.65.39A3.78,3.78,0,0,1,81.45,48.11Z"/><path class="cls-1" d="M88.49,48.11a3.05,3.05,0,0,1-1.22-1.17,3.34,3.34,0,0,1-.44-1.7,3.3,3.3,0,0,1,.44-1.69,3,3,0,0,1,1.22-1.16A3.62,3.62,0,0,1,90.24,42a3.66,3.66,0,0,1,1.76.42,3,3,0,0,1,1.22,1.16,3.3,3.3,0,0,1,.44,1.69,3.34,3.34,0,0,1-.44,1.7A3.05,3.05,0,0,1,92,48.11a3.66,3.66,0,0,1-1.76.42A3.62,3.62,0,0,1,88.49,48.11Zm3.12-1.42a2.22,2.22,0,0,0,0-2.9,1.83,1.83,0,0,0-1.37-.55,1.79,1.79,0,0,0-1.36.55,2.22,2.22,0,0,0,0,2.9,1.8,1.8,0,0,0,1.36.56A1.84,1.84,0,0,0,91.61,46.69Z"/><path class="cls-1" d="M101.38,42v6.41H99.89V43.31H96.74v5.14h-1.5V42Z"/><path class="cls-1" d="M108.65,42.37a2.94,2.94,0,0,1,1.16,1.16,3.39,3.39,0,0,1,.42,1.71,3.45,3.45,0,0,1-.42,1.72,2.88,2.88,0,0,1-1.16,1.16,3.41,3.41,0,0,1-1.67.41,2.6,2.6,0,0,1-2-.86v3.1h-1.5V42h1.43v.84a2.3,2.3,0,0,1,.91-.69A3.18,3.18,0,0,1,107,42,3.41,3.41,0,0,1,108.65,42.37Zm-.48,4.32a2.22,2.22,0,0,0,0-2.9,1.79,1.79,0,0,0-1.36-.55,2,2,0,0,0-1,.24,1.72,1.72,0,0,0-.68.71,2.1,2.1,0,0,0-.26,1.05,2.16,2.16,0,0,0,.26,1.06,1.7,1.7,0,0,0,.68.7,2,2,0,0,0,1,.25A1.8,1.8,0,0,0,108.17,46.69Z"/><path class="cls-1" d="M113,48.11a3.05,3.05,0,0,1-1.22-1.17,3.34,3.34,0,0,1-.44-1.7,3.3,3.3,0,0,1,.44-1.69A3,3,0,0,1,113,42.39a3.62,3.62,0,0,1,1.75-.42,3.67,3.67,0,0,1,1.77.42,3,3,0,0,1,1.21,1.16,3.21,3.21,0,0,1,.44,1.69,3.24,3.24,0,0,1-.44,1.7,3,3,0,0,1-1.21,1.17,3.67,3.67,0,0,1-1.77.42A3.62,3.62,0,0,1,113,48.11Zm3.12-1.42a2.22,2.22,0,0,0,0-2.9,1.83,1.83,0,0,0-1.37-.55,1.81,1.81,0,0,0-1.36.55,2.25,2.25,0,0,0,0,2.9,1.82,1.82,0,0,0,1.36.56A1.84,1.84,0,0,0,116.13,46.69Z"/><path class="cls-1" d="M125.59,46.65A1.54,1.54,0,0,1,125,48a3.29,3.29,0,0,1-1.92.47h-3.27V42h3.14a3.3,3.3,0,0,1,1.83.43,1.38,1.38,0,0,1,.66,1.22,1.46,1.46,0,0,1-.26.86,1.71,1.71,0,0,1-.72.56A1.48,1.48,0,0,1,125.59,46.65Zm-4.4-1.94h1.57c.78,0,1.17-.26,1.17-.8s-.39-.78-1.17-.78h-1.57Zm3,1.84a.71.71,0,0,0-.29-.63,1.52,1.52,0,0,0-.89-.21h-1.77v1.64h1.72C123.73,47.35,124.14,47.09,124.14,46.55Z"/><path class="cls-1" d="M128.4,48.11a3.05,3.05,0,0,1-1.22-1.17,3.34,3.34,0,0,1-.44-1.7,3.3,3.3,0,0,1,.44-1.69,3,3,0,0,1,1.22-1.16,3.62,3.62,0,0,1,1.75-.42,3.67,3.67,0,0,1,1.77.42,3,3,0,0,1,1.21,1.16,3.3,3.3,0,0,1,.44,1.69,3.34,3.34,0,0,1-.44,1.7,3,3,0,0,1-1.21,1.17,3.67,3.67,0,0,1-1.77.42A3.62,3.62,0,0,1,128.4,48.11Zm3.12-1.42a2.22,2.22,0,0,0,0-2.9,1.83,1.83,0,0,0-1.37-.55,1.81,1.81,0,0,0-1.36.55,2.22,2.22,0,0,0,0,2.9,1.82,1.82,0,0,0,1.36.56A1.84,1.84,0,0,0,131.52,46.69Z"/><path class="cls-1" d="M141.1,45.88H140v2.57h-1.49V45.88h-1.08l-1.56,2.57h-1.77l2.1-3.32L134.27,42h1.6l1.56,2.59h1.1V42H140v2.59h1.09L142.68,42h1.6l-1.94,3.09,2.11,3.32h-1.79Z"/><path class="cls-1" d="M153,47.17v2.7h-1.41V48.45h-4.94v1.42h-1.39v-2.7h.3c.41,0,.68-.27.83-.78a9.94,9.94,0,0,0,.3-2.16l.08-2.19H152v5.13Zm-5.13-1a1.75,1.75,0,0,1-.48,1h3.16V43.31h-2.46l0,1A12.31,12.31,0,0,1,147.83,46.14Z"/><path class="cls-1" d="M160.34,45.72h-5a1.74,1.74,0,0,0,.69,1.12,2.25,2.25,0,0,0,1.39.42,2.33,2.33,0,0,0,1.74-.7l.8.93a2.79,2.79,0,0,1-1.09.78,4.12,4.12,0,0,1-1.49.26,4,4,0,0,1-1.86-.42,3,3,0,0,1-1.24-1.17,3.34,3.34,0,0,1-.44-1.7,3.28,3.28,0,0,1,.43-1.68,3,3,0,0,1,1.18-1.17,3.43,3.43,0,0,1,1.7-.42,3.32,3.32,0,0,1,1.68.41A3,3,0,0,1,160,43.54a3.5,3.5,0,0,1,.41,1.74A4,4,0,0,1,160.34,45.72Zm-4.43-2.13a1.76,1.76,0,0,0-.61,1.14h3.64a1.87,1.87,0,0,0-3-1.14Z"/><path class="cls-1" d="M162,42h1.5v2.6h3.22V42h1.5v6.41h-1.5V45.91h-3.22v2.54H162Z"/><path class="cls-1" d="M170.28,42h1.5v4.22L175.32,42h1.37v6.41h-1.5V44.22l-3.53,4.23h-1.38Z"/><path class="cls-1" d="M184.21,42v6.41h-1.34V46.51h-1.69l-1.31,1.94h-1.61l1.51-2.14a2.19,2.19,0,0,1-1.06-.74,2.26,2.26,0,0,1,.42-2.93,3.42,3.42,0,0,1,2.14-.6Zm-4.34,2.35c0,.72.47,1.08,1.4,1.08h1.6V43.3h-1.55C180.35,43.3,179.87,43.66,179.87,44.39Z"/><path class="cls-1" d="M197.41,40.05v8.4h-1.53V41.37h-4.36v7.08H190v-8.4Z"/><path class="cls-1" d="M199.64,40.05h1.53v6l4.52-6h1.45v8.4H205.6v-6l-4.51,6h-1.45Z"/><path class="cls-1" d="M216.65,40.05v8.4h-1.53V41.37h-3.31l-.08,2.1a17.87,17.87,0,0,1-.28,2.86,3.65,3.65,0,0,1-.74,1.67,1.75,1.75,0,0,1-1.39.57,4.15,4.15,0,0,1-.85-.12l.11-1.36a1.25,1.25,0,0,0,.36,0c.49,0,.83-.29,1-.87a10.07,10.07,0,0,0,.37-2.74l.12-3.48Z"/><polygon class="cls-2" points="15.24 33.85 11.91 33.85 18.52 24.92 25.17 24.69 33.03 8.5 37.32 6.79 40.75 10.24 52.34 10.24 54.99 25.1 57.92 29.18 59.74 29.27 63.29 27.88 68.35 30.41 73.66 28.05 73.75 30.76 68.33 33.16 63.2 30.8 60.18 31.98 56.5 31.8 52.44 26.18 50.08 12.93 39.62 12.93 36.67 9.95 35 10.62 26.89 27.32 19.89 27.57 15.24 33.85"/><path class="cls-3" d="M54,19.82l.1-.18Z"/><path class="cls-2" d="M69.41,45.58V43h4.53v-2.6h-4.5V38h4.9V35.46H54.6s-3.83.2-3.72,3.5,3.72,3.72,3.72,3.72h3.53a1.39,1.39,0,0,1,1,1.46,1.21,1.21,0,0,1-1.24,1.24H46.21V15.52H43.14V35.41H33.5v8.83a1.82,1.82,0,0,1-1.92,1.16,2.26,2.26,0,0,1-2.12-1.24V35.41H11.34V58.52l3.07,0V45.37H18c1.41,0,3.75-2.27,3.75-5a6.08,6.08,0,0,0-.4-2.24h5.08v6.8s.48,3.26,5.24,3.26,5.13-3.62,5.13-3.62v-6.4h6.39v10l15.6,0s3.32-.87,3.32-4.19a4.19,4.19,0,0,0-3.31-4H54.81s-1-.08-1-1,1-1,1-1H66.58V48.16h8V45.58Zm-51-5.52a3.08,3.08,0,0,1-1.07,2.12H14.55V38.24h2.82a1.75,1.75,0,0,1,1,1.82"/><polygon class="cls-3" points="48.08 24.84 52.89 23.58 56.8 21.28 58.24 19.38 59.21 20.71 60.72 25.35 64.82 25.26 68.85 27.1 72 25.78 65.38 22.55 62.66 22.61 61.64 19.48 58.3 14.85 54.97 19.23 51.84 21.07 48.08 22.05 48.08 24.84"/><polygon class="cls-3" points="12.97 20.83 7.68 22.8 7.68 28.86 0.83 36.81 4.99 42.12 4.99 47.11 7.89 50.63 7.89 41.12 4.58 36.9 10.58 29.94 10.58 24.82 15.22 23.09 20.8 8.22 22.45 11.17 27.01 12.41 33.84 24.8 38.03 24.05 41.27 25.08 41.27 22.04 38.23 21.08 35.38 21.58 28.95 9.94 24.39 8.69 20.28 1.37 12.97 20.83"/></svg>