<svg id="Слой_1" data-name="Слой 1" xmlns="http://www.w3.org/2000/svg" width="92" height="19" viewBox="0 0 92 19">
  <defs>
    <style>
      .cls-1 {
        fill: #d45959;
      }

      .cls-2 {
        fill: none;
        stroke: #d45959;
        stroke-miterlimit: 10;
        stroke-width: 2px;
      }
    </style>
  </defs>
  <g>
    <path class="cls-1" d="M.77,7.51H3.06V13l-.25,2.36h0l1.07-2.13L7.48,7.51h2.1V18.68H7.3V13.22l.24-2.35h0L6.43,13,2.87,18.68H.77Z"/>
    <path class="cls-1" d="M12,7.51h7.29V9.67H14.32v2.09h2.75a3.47,3.47,0,0,1,1.36.26,3,3,0,0,1,1,.72,3.27,3.27,0,0,1,.65,1.1,4,4,0,0,1,.24,1.4,3.75,3.75,0,0,1-.24,1.37,3.23,3.23,0,0,1-.65,1.09,3,3,0,0,1-1,.72,3.47,3.47,0,0,1-1.36.26H12Zm4.82,9a1.16,1.16,0,0,0,.83-.28,1.06,1.06,0,0,0,.3-.82V15a1.06,1.06,0,0,0-.3-.82,1.16,1.16,0,0,0-.83-.28H14.32v2.68Z"/>
    <path class="cls-1" d="M22.12,18.68V7.51h5.11a3.51,3.51,0,0,1,1.36.26,3,3,0,0,1,1,.73,3.09,3.09,0,0,1,.66,1.13,4.2,4.2,0,0,1,.23,1.45,4.16,4.16,0,0,1-.23,1.45,3.05,3.05,0,0,1-.66,1.12,3,3,0,0,1-1,.73,3.33,3.33,0,0,1-1.36.26H24.47v4Zm2.35-6.15H27a1.13,1.13,0,0,0,.82-.28,1,1,0,0,0,.31-.82v-.71a1,1,0,0,0-.31-.82A1.13,1.13,0,0,0,27,9.62H24.47Z"/>
    <path class="cls-1" d="M38.23,18.68,37.46,16h-3.6l-.77,2.66H30.71L34.26,7.51h2.91l3.51,11.17Zm-2.55-9h-.07L34.42,14h2.47Z"/>
    <path class="cls-1" d="M44.53,12H48.1a2.25,2.25,0,0,0-2.43-2.48,2.93,2.93,0,0,0-.84.1,1.88,1.88,0,0,0-.6.3,2.22,2.22,0,0,0-.44.48,3.38,3.38,0,0,0-.31.6l-2-1.15a8.17,8.17,0,0,1,.74-1.08,4.14,4.14,0,0,1,.9-.78,3.63,3.63,0,0,1,1.12-.47,6.13,6.13,0,0,1,3.46.2,3.89,3.89,0,0,1,1.54,1.07,4.78,4.78,0,0,1,1,1.78A8.45,8.45,0,0,1,50.59,13a8.61,8.61,0,0,1-.34,2.51,5.14,5.14,0,0,1-1,1.84,4,4,0,0,1-1.54,1.12,5.22,5.22,0,0,1-2.06.39A4.72,4.72,0,0,1,43,18.2a4.52,4.52,0,0,1-1.59-1.88l1.92-1.21a2.7,2.7,0,0,0,.79,1.15,2.25,2.25,0,0,0,1.51.45,2.46,2.46,0,0,0,1.77-.63,2.42,2.42,0,0,0,.66-1.84v-.12H44.53Z"/>
    <path class="cls-1" d="M56.2,18.68V7.51h5.1a3.44,3.44,0,0,1,1.36.26,3.06,3.06,0,0,1,1,.73,3.4,3.4,0,0,1,.66,1.13,4.69,4.69,0,0,1,0,2.9,3.35,3.35,0,0,1-.66,1.12,3.06,3.06,0,0,1-1,.73,3.27,3.27,0,0,1-1.36.26H58.55v4Zm2.35-6.15H61a1.16,1.16,0,0,0,.83-.28,1.06,1.06,0,0,0,.3-.82v-.71a1.07,1.07,0,0,0-.3-.82A1.16,1.16,0,0,0,61,9.62H58.55Z"/>
    <path class="cls-1" d="M72.29,18.68,71.52,16h-3.6l-.77,2.66H64.77L68.32,7.51h2.91l3.51,11.17Zm-2.55-9h-.07L68.48,14H71Z"/>
    <path class="cls-1" d="M82.7,14.1H78.59v4.58H76.24V7.51h2.35v4.43H82.7V7.51h2.35V18.68H82.7Z"/>
  </g>
  <polyline class="cls-2" points="90.59 10.11 90.59 1.96 82.08 1.96"/>
</svg>
