<svg id="Слой_1" data-name="Слой 1" xmlns="http://www.w3.org/2000/svg" width="26.5" height="32.5" viewBox="0 0 26.5 32.5">
  <defs>
    <style>
      .cls-1 {
        fill: #6092c4;
      }
    </style>
  </defs>
  <path class="cls-1" d="M13,14A6.78,6.78,0,0,1,6.32,7.13,6.78,6.78,0,0,1,13,.25a6.78,6.78,0,0,1,6.67,6.88A6.78,6.78,0,0,1,13,14ZM13,2.25A4.79,4.79,0,0,0,8.32,7.13,4.79,4.79,0,0,0,13,12a4.78,4.78,0,0,0,4.67-4.87A4.78,4.78,0,0,0,13,2.25Z"/>
  <path class="cls-1" d="M26.09,32.25H.41v-1c0-6.94.42-12.95,5.49-16.11l.62-.39.55.47a9,9,0,0,0,5.8,2.09A8.9,8.9,0,0,0,18.94,15l.54-.5.64.37c5.51,3.15,6,9.83,6,16.4Zm-23.67-2H24.08c-.07-6.56-.9-10.93-4.37-13.3a10.89,10.89,0,0,1-6.84,2.36,11,11,0,0,1-6.48-2.09C2.93,19.82,2.46,24.64,2.42,30.25Z"/>
</svg>
