<svg id="Слой_1" data-name="Слой 1" xmlns="http://www.w3.org/2000/svg" xmlns:xlink="http://www.w3.org/1999/xlink" viewBox="0 0 63 60"><defs><style>.cls-1,.cls-4{fill:none;}.cls-2{clip-path:url(#clip-path);}.cls-3{fill:#134395;}.cls-4{stroke:#134395;stroke-miterlimit:10;}.cls-5{fill:#fff;}</style><clipPath id="clip-path"><rect class="cls-1" x="0.5" y="0.5" width="62" height="59"/></clipPath></defs><g class="cls-2"><rect class="cls-3" x="18.5" y="0.65" width="44" height="42"/><path class="cls-4" d="M21,58.15c-4.61,0-7.79-1.14-9.81-3.49s-1.76-6.28.58-10.59c-5.3-.76-10.19-4-10.19-11.13.08-9,7.15-14.73,19.4-15.73a48.3,48.3,0,0,1,5.61-.11,17.58,17.58,0,0,1,.77-8.63c1-2.53,2.48-4.29,4.32-5C37,1.68,44.67,4.92,49,10.91a24.85,24.85,0,0,1,2.88,5.61A66.9,66.9,0,0,1,64.68,9.39C70.91,7,76.62,7.46,79.23,10.62c2.21,2.61,1.63,7.89-1.41,12.85-1.25,2-4.4,5.77-9.67,10.47a18.08,18.08,0,0,1,4.23,4.82,16.4,16.4,0,0,1,1.72,5h5.81v.53H74.15a8.09,8.09,0,0,1-1.58,5.14c-2.58,4-9.19,2.66-14.52.09-.51-.23-1.23-.61-2.1-1.1-1.39,6-5,9-10.61,8.76a10.82,10.82,0,0,1-6.61-3.74,45.78,45.78,0,0,1-12.49,4.29A38.69,38.69,0,0,1,21,58.15Zm-8.67-14c-2.32,4.18-2.63,8-.74,10.17,1.63,1.9,4.92,4.26,14.62,2.91a44.37,44.37,0,0,0,12.21-4.17,11.31,11.31,0,0,1-2.55-5.48,30.48,30.48,0,0,1-.31-3.3l-21.17,0A17.89,17.89,0,0,1,12.28,44.14Zm26.93,9.09a10.22,10.22,0,0,0,6.16,3.45c5.39.21,8.79-2.65,10.1-8.51-1-.59-2.23-1.32-3.52-2.14A131.88,131.88,0,0,1,39.21,53.23Zm-3.17-9a26.83,26.83,0,0,0,.31,3.22,10.82,10.82,0,0,0,2.5,5.33,129.28,129.28,0,0,0,12.61-7.11c-.7-.45-1.42-.93-2.15-1.42Zm20,3.63c.92.52,1.68.92,2.22,1.16,5.13,2.47,11.45,3.8,13.85.1a7.57,7.57,0,0,0,1.5-4.85H56.53c0,.53-.08,1.06-.14,1.56C56.3,46.57,56.2,47.25,56.06,47.9Zm-3.62-2.18c1.14.72,2.21,1.37,3.14,1.9.11-.58.21-1.19.28-1.82s.11-1,.14-1.5H54.62C53.91,44.77,53.18,45.24,52.44,45.72Zm-2.19-1.43c.58.39,1.15.76,1.7,1.11l1.72-1.11Zm6.31-.52,17,0A16.42,16.42,0,0,0,71.91,39a18.35,18.35,0,0,0-4.17-4.68A117.25,117.25,0,0,1,58.05,42l-1.46,1Zm-1.15,0H56c0-.15,0-.29,0-.44Zm-5.95,0h5l1.61-1.09A72.32,72.32,0,0,0,54,25.32c-.8-.38-1.6-.74-2.39-1.06l-.42-.17c-1.71-.7-3.47-1.41-5.29-2.1a46.19,46.19,0,0,0-4,4,22.86,22.86,0,0,0-4.42,7.75c.74.77,1.55,1.58,2.43,2.45A74.26,74.26,0,0,0,49.46,43.76ZM36,43.75H48.53a72.26,72.26,0,0,1-9-7.15c-.81-.8-1.55-1.55-2.24-2.26A29.48,29.48,0,0,0,36,43.75Zm-23.45-.11a17.47,17.47,0,0,0,1.77.08l21.15,0a30,30,0,0,1,1.36-9.83,52.06,52.06,0,0,1-5.46-6.53c-5.39,3.69-15,10.6-18.06,15C13.06,42.84,12.8,43.24,12.57,43.64Zm12.09-26c-1.2,0-2.43.05-3.69.14C9,18.71,2.13,24.26,2.06,33c0,6.9,4.79,9.94,9.94,10.62.27-.47.57-1,.89-1.43C16,37.62,25.68,30.66,31.1,27c-.93-1.38-1.84-2.88-2.81-4.65a15.26,15.26,0,0,1-1.66-4.67C26,17.61,25.33,17.59,24.66,17.59Zm30,8.05a74.79,74.79,0,0,1,2,16.68l1.15-.8A118.47,118.47,0,0,0,67.33,34,65.6,65.6,0,0,0,54.64,25.64ZM54.49,25A66.61,66.61,0,0,1,67.75,33.6c5.26-4.68,8.38-8.46,9.62-10.41,2.92-4.76,3.52-9.79,1.46-12.23s-7.12-3.73-14-1.08a67.33,67.33,0,0,0-12.76,7.17A67.4,67.4,0,0,1,54.49,25ZM31.83,27.09A50.25,50.25,0,0,0,37,33.36a23.07,23.07,0,0,1,4.44-7.68,46.69,46.69,0,0,1,3.83-3.9,60.14,60.14,0,0,0-18.14-4.12A14.56,14.56,0,0,0,28.75,22c1,1.76,1.86,3.25,2.78,4.61.9-.61,1.66-1.12,2.23-1.49l.29.44C33.48,26,32.72,26.48,31.83,27.09ZM46.32,21.6q2.59,1,5,2l.42.17c.67.27,1.35.57,2,.9a68.84,68.84,0,0,0-2.18-7.27C49.8,18.72,48,20.13,46.32,21.6ZM27.08,17.12a61,61,0,0,1,18.67,4.26,66.28,66.28,0,0,1,5.69-4.51,25,25,0,0,0-2.82-5.65C44.37,5.41,37,2.25,31.81,4c-1.69.61-3.12,2.25-4,4.64A16.8,16.8,0,0,0,27.08,17.12Z"/><path class="cls-5" d="M62.46,38.68V37.37q-2.41,1.91-5,3.74l-.35.25a76.14,76.14,0,0,0-1.76-14.79,65.58,65.58,0,0,1,7.11,4.3V29a67.43,67.43,0,0,0-7.54-4.37,68.48,68.48,0,0,0-2.19-7.4,72.91,72.91,0,0,1,9.77-5.77l0-1.67a73,73,0,0,0-10.31,5.95,24.89,24.89,0,0,0-2.7-5.14C45.91,5.76,40.06,2.5,34.9,2.5a10.59,10.59,0,0,0-3.43.55c-2,.71-3.63,2.58-4.62,5.25A17.87,17.87,0,0,0,26,16.58l-1.29,0q-1.89,0-3.78.15c-.8.06-1.6.15-2.36.26v1.54s1.66-.21,2.48-.28c1.21-.09,2.44-.14,3.65-.14q.78,0,1.56,0a15.48,15.48,0,0,0,1.63,4.43c.91,1.64,1.73,3,2.56,4.27-.67.46-1.4,1-2.15,1.49a7.57,7.57,0,1,0,1,1.2l2.05-1.43a50.85,50.85,0,0,0,5,6,30.16,30.16,0,0,0-1.3,8.6h1.53a28.71,28.71,0,0,1,1-7.34L39.16,37a64.43,64.43,0,0,0,6.93,5.68h2.64a71.22,71.22,0,0,1-8.5-6.77c-.84-.84-1.57-1.56-2.21-2.22a22.2,22.2,0,0,1,4.23-7.3A42.73,42.73,0,0,1,46,22.57c1.71.65,3.38,1.33,5,2l.43.17c.69.29,1.41.61,2.13,1a72.35,72.35,0,0,1,2,16.74l-.35.24h2.7l.41-.29c1.16-.82,3.31-2.44,4.12-3v-.63h0ZM41.1,25.35a23.47,23.47,0,0,0-4.25,7.08,47.46,47.46,0,0,1-4.32-5.21L34.32,26l.42-.27-.27-.42-.3-.44-.27-.42-.42.28L31.67,26c-.81-1.23-1.6-2.56-2.49-4.16a13.81,13.81,0,0,1-1.38-3.6A59.35,59.35,0,0,1,44.37,22,44.46,44.46,0,0,0,41.1,25.35Zm4.55-4.54a61.81,61.81,0,0,0-18.14-4.16,16.22,16.22,0,0,1,.77-7.82c.83-2.24,2.14-3.78,3.7-4.34A8.93,8.93,0,0,1,34.92,4c4.68,0,10,3,13.29,7.48a23.74,23.74,0,0,1,2.63,5.17C49,18,47.23,19.41,45.65,20.81ZM52,23.31l-.42-.18c-1.39-.56-2.82-1.14-4.28-1.7q1.92-1.63,4.11-3.24c.61,1.72,1.17,3.59,1.69,5.59C52.71,23.61,52.34,23.46,52,23.31Z"/></g></svg>