<svg id="Слой_1" data-name="Слой 1" xmlns="http://www.w3.org/2000/svg" xmlns:xlink="http://www.w3.org/1999/xlink" width="318" height="97" viewBox="0 0 318 97">
  <defs>
    <style>
      .cls-1 {
        fill: none;
      }

      .cls-2 {
        fill: #0f595e;
      }

      .cls-3 {
        fill: #00595b;
      }

      .cls-4 {
        fill: #d35a58;
      }

      .cls-5 {
        clip-path: url(#clip-path);
      }
    </style>
    <clipPath id="clip-path">
      <rect class="cls-1" x="1.59" y="1.06" width="121.65" height="94.82"/>
    </clipPath>
  </defs>
  <path class="cls-2" d="M134.51,58.37a5.61,5.61,0,0,1-2.14-2.1,6.27,6.27,0,0,1,0-6,5.51,5.51,0,0,1,2.14-2.09,6.58,6.58,0,0,1,5.56-.27A5,5,0,0,1,142,49.29l-1.34,1.29a3.85,3.85,0,0,0-3-1.34,4.1,4.1,0,0,0-2,.51,3.62,3.62,0,0,0-1.42,1.43,4.46,4.46,0,0,0,0,4.14,3.62,3.62,0,0,0,1.42,1.43,4.1,4.1,0,0,0,2,.51,3.86,3.86,0,0,0,3-1.35L142,57.22a5.21,5.21,0,0,1-1.92,1.42,6.47,6.47,0,0,1-2.52.49,6.24,6.24,0,0,1-3.05-.76"/>
  <polygon class="cls-2" points="143.72 50.25 145.72 50.25 145.72 55.99 150.42 50.25 152.24 50.25 152.24 58.96 150.25 58.96 150.25 53.22 145.56 58.96 143.72 58.96 143.72 50.25"/>
  <path class="cls-2" d="M156.56,58.5a4.21,4.21,0,0,1-1.65-1.59,4.8,4.8,0,0,1,0-4.61,4.22,4.22,0,0,1,1.64-1.58,4.9,4.9,0,0,1,2.38-.57,4.48,4.48,0,0,1,2.21.52,3.35,3.35,0,0,1,1.43,1.5l-1.53.92a2.36,2.36,0,0,0-.92-.91,2.46,2.46,0,0,0-1.2-.3,2.5,2.5,0,0,0-1.85.74,2.71,2.71,0,0,0-.74,2,2.75,2.75,0,0,0,.73,2,2.49,2.49,0,0,0,1.86.74,2.46,2.46,0,0,0,1.2-.3,2.43,2.43,0,0,0,.92-.91l1.53.92a3.48,3.48,0,0,1-1.44,1.5,4.37,4.37,0,0,1-2.2.54,4.78,4.78,0,0,1-2.37-.58"/>
  <polygon class="cls-2" points="171.68 51.98 168.7 51.98 168.7 58.96 166.7 58.96 166.7 51.98 163.71 51.98 163.71 50.25 171.68 50.25 171.68 51.98"/>
  <path class="cls-2" d="M175.42,52.36a2.45,2.45,0,0,0-.81,1.54h4.83A2.35,2.35,0,0,0,177,51.78a2.39,2.39,0,0,0-1.61.58m5.89,2.9h-6.68a2.34,2.34,0,0,0,.91,1.52,3,3,0,0,0,1.85.57,3.08,3.08,0,0,0,2.31-1l1.07,1.26a3.69,3.69,0,0,1-1.45,1.06,5.21,5.21,0,0,1-2,.36,5,5,0,0,1-2.47-.58,4,4,0,0,1-1.66-1.59,4.89,4.89,0,0,1,0-4.6,4.07,4.07,0,0,1,1.57-1.59,4.74,4.74,0,0,1,4.49,0,4,4,0,0,1,1.53,1.59,4.83,4.83,0,0,1,.55,2.35c0,.15,0,.35,0,.61"/>
  <polygon class="cls-2" points="191.9 58.96 191.9 53.19 189.03 58.05 188.17 58.05 185.34 53.17 185.34 58.96 183.52 58.96 183.52 50.25 185.61 50.25 188.64 55.7 191.82 50.25 193.69 50.25 193.7 58.96 191.9 58.96"/>
  <path class="cls-2" d="M200.74,57.24a1.89,1.89,0,0,0,.82-1v-1H199.5c-1.15,0-1.72.39-1.72,1.16a1,1,0,0,0,.43.88,1.94,1.94,0,0,0,1.2.33,2.56,2.56,0,0,0,1.33-.35m1.82-6.17a3.63,3.63,0,0,1,1,2.78V59h-1.89V57.9a2.3,2.3,0,0,1-1,.87,4,4,0,0,1-1.64.31,4,4,0,0,1-1.67-.34,2.55,2.55,0,0,1-1.11-.93,2.39,2.39,0,0,1-.39-1.34,2.32,2.32,0,0,1,.85-1.89,4.2,4.2,0,0,1,2.69-.71h2.2v-.13a1.81,1.81,0,0,0-.53-1.4,2.28,2.28,0,0,0-1.59-.49,4.25,4.25,0,0,0-1.41.23,3.36,3.36,0,0,0-1.17.63l-.79-1.48a4.73,4.73,0,0,1,1.62-.8,6.79,6.79,0,0,1,2-.28,4.13,4.13,0,0,1,2.88.92"/>
  <polygon class="cls-2" points="210.78 50.25 212.78 50.25 212.78 53.79 217.07 53.79 217.07 50.25 219.06 50.25 219.06 58.96 217.07 58.96 217.07 55.52 212.78 55.52 212.78 58.96 210.78 58.96 210.78 50.25"/>
  <g>
    <path class="cls-2" d="M226.13,57.24a1.93,1.93,0,0,0,.82-1v-1h-2.06c-1.15,0-1.72.39-1.72,1.16a1,1,0,0,0,.43.88,1.89,1.89,0,0,0,1.19.33,2.6,2.6,0,0,0,1.34-.35m1.81-6.17a3.59,3.59,0,0,1,1,2.78V59h-1.88V57.9a2.32,2.32,0,0,1-1.05.87,4.38,4.38,0,0,1-3.31,0,2.53,2.53,0,0,1-1.1-.93,2.48,2.48,0,0,1,.46-3.23,4.18,4.18,0,0,1,2.69-.71H227v-.13a1.78,1.78,0,0,0-.54-1.4,2.24,2.24,0,0,0-1.59-.49,4.34,4.34,0,0,0-1.41.23,3.45,3.45,0,0,0-1.17.63l-.78-1.48a4.67,4.67,0,0,1,1.61-.8,6.86,6.86,0,0,1,2-.28,4.09,4.09,0,0,1,2.87.92"/>
    <path class="cls-2" d="M239.29,50.25l-4,9.41a4.26,4.26,0,0,1-1.36,2,3.16,3.16,0,0,1-1.93.58,4,4,0,0,1-1.26-.21,2.83,2.83,0,0,1-1-.59l.8-1.5a2.1,2.1,0,0,0,.68.44,2,2,0,0,0,.79.16,1.37,1.37,0,0,0,.87-.27,2.51,2.51,0,0,0,.63-.93l.14-.35-3.72-8.74H232l2.68,6.44,2.69-6.44Z"/>
    <path class="cls-2" d="M248.44,50.25V59h-2V55.58a5.65,5.65,0,0,1-2.57.61,3.69,3.69,0,0,1-2.52-.78,3,3,0,0,1-.87-2.37V50.25h2v2.66a1.54,1.54,0,0,0,.48,1.24,2,2,0,0,0,1.35.41,5,5,0,0,0,2.14-.49V50.25Z"/>
  </g>
  <polygon class="cls-2" points="251.16 50.25 253.15 50.25 253.15 53.79 257.44 53.79 257.44 50.25 259.43 50.25 259.43 58.96 257.44 58.96 257.44 55.52 253.15 55.52 253.15 58.96 251.16 58.96 251.16 50.25"/>
  <path class="cls-2" d="M267.88,56.58a3.1,3.1,0,0,0,0-3.95,2.42,2.42,0,0,0-1.82-.75,2.37,2.37,0,0,0-1.81.75,3.1,3.1,0,0,0,0,3.95,2.37,2.37,0,0,0,1.81.75,2.42,2.42,0,0,0,1.82-.75m-4.15,1.92a4.13,4.13,0,0,1-1.62-1.59,4.87,4.87,0,0,1,0-4.61,4.17,4.17,0,0,1,1.62-1.58,5.07,5.07,0,0,1,4.67,0A4.17,4.17,0,0,1,270,52.3a4.87,4.87,0,0,1,0,4.61,4.13,4.13,0,0,1-1.62,1.59,5,5,0,0,1-4.67,0"/>
  <polygon class="cls-2" points="279.25 51.98 274.7 51.98 274.7 58.96 272.71 58.96 272.71 50.25 279.25 50.25 279.25 51.98"/>
  <g>
    <path class="cls-2" d="M286.54,56.58a3.07,3.07,0,0,0,0-3.95,2.42,2.42,0,0,0-1.82-.75,2.37,2.37,0,0,0-1.81.75,3.1,3.1,0,0,0,0,3.95,2.37,2.37,0,0,0,1.81.75,2.42,2.42,0,0,0,1.82-.75m-4.15,1.92a4.13,4.13,0,0,1-1.62-1.59,4.87,4.87,0,0,1,0-4.61,4.17,4.17,0,0,1,1.62-1.58,5.07,5.07,0,0,1,4.67,0,4.17,4.17,0,0,1,1.62,1.58,4.87,4.87,0,0,1,0,4.61,4.13,4.13,0,0,1-1.62,1.59,5,5,0,0,1-4.67,0"/>
    <path class="cls-2" d="M133.7,78.9a4.11,4.11,0,0,1-1.64-1.59,4.8,4.8,0,0,1,0-4.61,4.2,4.2,0,0,1,1.63-1.58,4.94,4.94,0,0,1,2.39-.57,4.48,4.48,0,0,1,2.21.52,3.4,3.4,0,0,1,1.43,1.5l-1.54.91a2.45,2.45,0,0,0-.91-.9,2.65,2.65,0,0,0-3.06.44,2.67,2.67,0,0,0-.73,2,2.71,2.71,0,0,0,.72,2,2.49,2.49,0,0,0,1.86.75,2.4,2.4,0,0,0,1.21-.31,2.45,2.45,0,0,0,.91-.9l1.54.91a3.47,3.47,0,0,1-1.45,1.51,4.33,4.33,0,0,1-2.19.53,4.93,4.93,0,0,1-2.38-.57"/>
    <path class="cls-2" d="M147.2,77a3.07,3.07,0,0,0,0-4,2.42,2.42,0,0,0-1.82-.75,2.38,2.38,0,0,0-1.81.75,3.1,3.1,0,0,0,0,4,2.38,2.38,0,0,0,1.81.75A2.42,2.42,0,0,0,147.2,77m-4.15,1.92a4.13,4.13,0,0,1-1.62-1.59,4.87,4.87,0,0,1,0-4.61,4.17,4.17,0,0,1,1.62-1.58,4.76,4.76,0,0,1,2.33-.57,4.84,4.84,0,0,1,2.35.57,4.08,4.08,0,0,1,1.61,1.58,4.8,4.8,0,0,1,0,4.61,4,4,0,0,1-1.61,1.59,4.84,4.84,0,0,1-2.35.57,4.76,4.76,0,0,1-2.33-.57"/>
  </g>
  <polygon class="cls-2" points="160.19 70.64 160.19 79.36 158.22 79.36 158.22 72.38 154.02 72.38 154.02 79.36 152.03 79.36 152.03 70.64 160.19 70.64"/>
  <g>
    <path class="cls-2" d="M169.22,77a2.75,2.75,0,0,0,.71-2,2.71,2.71,0,0,0-.71-2,2.37,2.37,0,0,0-1.81-.75,2.53,2.53,0,0,0-1.29.33,2.35,2.35,0,0,0-.91,1,3,3,0,0,0-.33,1.43,3,3,0,0,0,.33,1.44,2.38,2.38,0,0,0,.91,1,2.53,2.53,0,0,0,1.29.34,2.37,2.37,0,0,0,1.81-.75m.64-5.88a3.88,3.88,0,0,1,1.54,1.57A4.75,4.75,0,0,1,172,75a4.82,4.82,0,0,1-.56,2.34,3.91,3.91,0,0,1-1.54,1.58,4.4,4.4,0,0,1-2.22.55,3.41,3.41,0,0,1-2.73-1.17v4.22h-2V70.64h1.9v1.15a3,3,0,0,1,1.22-.93,4,4,0,0,1,1.61-.31,4.4,4.4,0,0,1,2.22.55"/>
    <path class="cls-2" d="M179.8,77a3.07,3.07,0,0,0,0-4,2.57,2.57,0,0,0-3.63,0,3.1,3.1,0,0,0,0,4,2.57,2.57,0,0,0,3.63,0m-4.15,1.92A4.13,4.13,0,0,1,174,77.31a4.87,4.87,0,0,1,0-4.61,4.17,4.17,0,0,1,1.62-1.58,4.76,4.76,0,0,1,2.33-.57,4.81,4.81,0,0,1,2.35.57A4.17,4.17,0,0,1,182,72.7a4.87,4.87,0,0,1,0,4.61,4.13,4.13,0,0,1-1.62,1.59,4.81,4.81,0,0,1-2.35.57,4.76,4.76,0,0,1-2.33-.57"/>
    <path class="cls-2" d="M190.45,76.78a1,1,0,0,0-.38-.86,2,2,0,0,0-1.2-.28h-2.34v2.23h2.28c1.09,0,1.64-.36,1.64-1.09m-3.92-2.5h2.09c1,0,1.55-.36,1.55-1.09s-.52-1.06-1.55-1.06h-2.09Zm5.85,2.63a2.1,2.1,0,0,1-.86,1.81,4.21,4.21,0,0,1-2.55.64h-4.34V70.64h4.16a4.33,4.33,0,0,1,2.44.59,1.88,1.88,0,0,1,.88,1.67,1.93,1.93,0,0,1-.34,1.15,2.21,2.21,0,0,1-1,.77,2,2,0,0,1,1.58,2.09"/>
    <path class="cls-2" d="M200.26,77a3.07,3.07,0,0,0,0-4,2.42,2.42,0,0,0-1.82-.75,2.37,2.37,0,0,0-1.81.75,3.1,3.1,0,0,0,0,4,2.37,2.37,0,0,0,1.81.75,2.42,2.42,0,0,0,1.82-.75m-4.15,1.92a4.13,4.13,0,0,1-1.62-1.59,4.87,4.87,0,0,1,0-4.61,4.17,4.17,0,0,1,1.62-1.58,5.07,5.07,0,0,1,4.67,0,4.1,4.1,0,0,1,1.62,1.58,4.8,4.8,0,0,1,0,4.61,4.06,4.06,0,0,1-1.62,1.59,5.07,5.07,0,0,1-4.67,0"/>
  </g>
  <polygon class="cls-2" points="213 75.87 211.56 75.87 211.56 79.36 209.58 79.36 209.58 75.87 208.15 75.87 206.07 79.36 203.71 79.36 206.5 74.85 203.92 70.64 206.04 70.64 208.11 74.17 209.58 74.17 209.58 70.64 211.56 70.64 211.56 74.17 213.01 74.17 215.1 70.64 217.22 70.64 214.64 74.85 217.44 79.36 215.07 79.36 213 75.87"/>
  <g>
    <path class="cls-2" d="M222,76.22a2.61,2.61,0,0,1-.64,1.41h4.19V72.37h-3.27l0,1.41a19,19,0,0,1-.23,2.44m6.81,1.41V81.3h-1.87V79.36h-6.57V81.3h-1.85V77.63h.4c.54,0,.91-.38,1.11-1.07a14.75,14.75,0,0,0,.39-2.93l.11-3h7v7Z"/>
    <path class="cls-2" d="M232.68,72.76a2.47,2.47,0,0,0-.81,1.54h4.84a2.42,2.42,0,0,0-.79-1.53,2.3,2.3,0,0,0-1.62-.59,2.35,2.35,0,0,0-1.62.58m5.89,2.89h-6.68a2.36,2.36,0,0,0,.91,1.53,3,3,0,0,0,1.85.56A3.08,3.08,0,0,0,237,76.8L238,78.05a3.6,3.6,0,0,1-1.45,1.06,5.21,5.21,0,0,1-2,.36,5.15,5.15,0,0,1-2.47-.57,4,4,0,0,1-1.66-1.59,4.66,4.66,0,0,1-.58-2.31,4.6,4.6,0,0,1,.57-2.29A4.07,4.07,0,0,1,232,71.12a4.53,4.53,0,0,1,2.27-.57,4.31,4.31,0,0,1,2.22.56,3.88,3.88,0,0,1,1.53,1.58,4.87,4.87,0,0,1,.55,2.36q0,.21,0,.6"/>
  </g>
  <polygon class="cls-2" points="240.78 70.64 242.78 70.64 242.78 74.19 247.07 74.19 247.07 70.64 249.06 70.64 249.06 79.36 247.07 79.36 247.07 75.92 242.78 75.92 242.78 79.36 240.78 79.36 240.78 70.64"/>
  <polygon class="cls-2" points="251.78 70.64 253.78 70.64 253.78 76.39 258.48 70.64 260.3 70.64 260.3 79.36 258.31 79.36 258.31 73.61 253.62 79.36 251.78 79.36 251.78 70.64"/>
  <path class="cls-2" d="M264.53,73.84c0,1,.62,1.47,1.87,1.47h2.12v-3h-2.06c-1.28,0-1.93.49-1.93,1.48m5.78-3.2v8.72h-1.79V76.73h-2.25l-1.74,2.63h-2.14l2-2.91a2.85,2.85,0,0,1-1.41-1,2.82,2.82,0,0,1-.48-1.67,2.78,2.78,0,0,1,1-2.32,4.55,4.55,0,0,1,2.86-.82Z"/>
  <polygon class="cls-2" points="287.85 67.94 287.85 79.36 285.81 79.36 285.81 69.73 280.02 69.73 280.02 79.36 277.98 79.36 277.98 67.94 287.85 67.94"/>
  <polygon class="cls-2" points="290.81 67.94 292.85 67.94 292.85 76.05 298.85 67.94 300.78 67.94 300.78 79.36 298.74 79.36 298.74 71.26 292.74 79.36 290.81 79.36 290.81 67.94"/>
  <path class="cls-2" d="M313.43,67.94V79.36h-2V69.73H307l-.1,2.86a24.26,24.26,0,0,1-.38,3.89,5,5,0,0,1-1,2.27,2.35,2.35,0,0,1-1.85.77,5.36,5.36,0,0,1-1.14-.16l.15-1.85a1.43,1.43,0,0,0,.48.07c.64,0,1.1-.39,1.38-1.18a14.41,14.41,0,0,0,.5-3.73l.16-4.73Z"/>
  <polygon class="cls-3" points="25.38 54.66 19.89 54.65 30.78 39.92 41.76 39.54 54.72 12.84 61.8 10.01 67.45 15.71 86.57 15.71 90.94 40.22 95.79 46.94 98.78 47.09 104.64 44.81 112.98 48.98 121.74 45.09 121.89 49.56 112.95 53.51 104.49 49.63 99.51 51.58 93.44 51.28 86.75 41.99 82.85 20.15 65.6 20.15 60.72 15.23 57.97 16.33 44.59 43.89 33.05 44.29 25.38 54.66"/>
  <path class="cls-4" d="M89.31,31.52l.15-.31Z"/>
  <g class="cls-5">
    <path class="cls-3" d="M114.73,75.31V71.08h7.47v-4.3h-7.41v-4h8.07V58.63H90.31S84,59,84.16,64.39s6.15,6.15,6.15,6.15h5.81a2.29,2.29,0,0,1,1.71,2.39,2,2,0,0,1-2,2.06H76.47V25.73H71.4V58.55H55.51V73.11S55,75,52.34,75a3.71,3.71,0,0,1-3.5-2V58.54H18.94V96.66l5.07,0V75h5.84C32.18,75,36,71.23,36,66.72a10.18,10.18,0,0,0-.67-3.7h8.39V74.24s.79,5.39,8.64,5.39,8.45-6,8.45-6V63.09H71.39V79.57l25.75,0s5.47-1.44,5.47-6.91-5.46-6.6-5.46-6.6h-6.5s-1.71-.14-1.71-1.64,1.71-1.58,1.71-1.58h19.42V79.57h13.19V75.31ZM30.58,66.2a5.21,5.21,0,0,1-1.76,3.52H24.24V63.21h4.65a2.89,2.89,0,0,1,1.69,3"/>
  </g>
  <polygon class="cls-4" points="79.54 39.78 87.48 37.71 93.93 33.92 96.31 30.78 97.91 32.98 100.39 40.63 107.16 40.48 113.81 43.52 119 41.34 108.08 36.02 103.59 36.12 101.91 30.95 96.4 23.3 90.92 30.54 85.76 33.57 79.54 35.19 79.54 39.78"/>
  <polygon class="cls-4" points="17.69 48.2 17.69 39.75 25.35 36.9 34.56 12.38 37.28 17.24 44.79 19.29 56.06 39.72 62.98 38.5 68.32 40.18 68.32 35.17 63.3 33.58 58.6 34.41 48 15.2 40.47 13.15 33.7 1.07 21.63 33.18 12.91 36.43 12.91 46.43 1.61 59.54 8.46 68.3 8.46 76.53 13.25 82.34 13.25 66.65 7.8 59.69 17.69 48.2"/>
</svg>
