<svg id="Слой_1" data-name="Слой 1" xmlns="http://www.w3.org/2000/svg" viewBox="0 0 265 167"><defs><style>.cls-1{fill:#105a5e;}.cls-2{fill:#fff;}.cls-3{fill:#d45a5a;}</style></defs><rect class="cls-1" x="47.6" y="3.86" width="178.77" height="161.14"/><polygon class="cls-2" points="45.98 104.67 34.94 118.06 13.25 118.06 13.25 125.3 38.35 125.3 45.98 116.05 45.98 104.67"/><polygon class="cls-2" points="57.26 91 48.21 101.97 48.21 113.35 56.85 102.88 56.85 98.66 60.33 98.66 63.37 94.98 65.42 90.88 57.33 90.88 57.26 91"/><polygon class="cls-2" points="240.21 79.14 217.63 66.71 190.51 77.67 177.49 77.67 165.53 67.62 156.82 26.98 127.08 26.98 115.64 14.45 95.67 14.45 80.39 57.08 72.09 61.35 58.44 88.65 66.53 88.65 77.51 66.7 86.24 62.22 100.77 21.69 112.45 21.69 123.89 34.23 150.97 34.23 158.97 71.57 174.85 84.91 191.92 84.91 217.15 74.71 233 83.44 233.26 114.74 240.51 114.68 240.21 79.14"/><polygon class="cls-3" points="140.32 65.6 140.32 56.87 131.49 50.93 131.49 59.66 140.32 65.6"/><polygon class="cls-3" points="212.66 117.78 212.66 91.04 205.41 91.04 205.41 125.02 226.62 125.02 226.62 117.78 212.66 117.78"/><polygon class="cls-3" points="76.51 29.09 85.32 47.59 96.33 47.59 103.3 57.38 118.42 50.87 129.26 58.16 129.26 49.43 119.18 42.65 105.8 48.41 100.06 40.35 89.9 40.35 76.42 12.06 52.82 63.01 36.02 65.91 33.43 80.82 29.54 90.07 16.56 99.15 29.97 122.93 30.52 164.61 37.76 164.52 37.19 120.98 26.09 101.31 35.4 94.8 40.42 82.88 42.28 72.17 57.79 69.5 76.51 29.09"/><rect class="cls-3" x="228.84" y="117.78" width="24.75" height="7.24"/><polygon class="cls-3" points="142.54 67.09 150.66 72.55 161.37 53.66 166.41 45.59 174.95 53.01 176.71 70.06 188.35 73.94 205.41 87.5 205.41 88.81 212.66 88.81 212.66 84 191.85 67.48 183.43 64.67 181.85 49.42 164.77 34.56 155.19 49.89 148.22 62.18 142.54 58.37 142.54 67.09"/><path class="cls-2" d="M213.27,117.67v-6.35h11.62v-7.64H213.37V98.84H226V91H174.05s-10.62,0-10.81,10.82c-.09,4.68,5.47,8.38,9.46,8.61,5.56.31,10.53,1.19,10.53,3.66,0,2.05-4.63,3.44-4.63,3.44H140.32V37.4h-8.83V90.89H107.82v23.75s-.84,3.11-5.16,3.11A6.06,6.06,0,0,1,97,114.42V90.88H48.21v73.29l8.82.07V117.66h9c3.79,0,10.08-6.08,10.08-13.44a16.58,16.58,0,0,0-1.08-6H88.67v18.3s1.29,8.77,14.09,8.77,13.77-9.74,13.77-9.74V98.3h15v27l49.41-.1s10.43-.43,10.43-11c0-3.66-3.11-9.22-10.89-9.91-3.76-.34-8.8-.74-8.8-3.33s3.22-3,3.22-3h29.7v27.22h22.06v-7.51ZM67.18,103.54a8.35,8.35,0,0,1-2.87,5.72H56.85V98.66h7.59A4.69,4.69,0,0,1,67.18,103.54Z"/></svg>